<svg width="48" height="48" viewBox="0 0 48 48" fill="none" xmlns="http://www.w3.org/2000/svg">
<path d="M35.04 22.0231C32.7752 22.0286 30.5659 21.3076 28.7243 19.9619V29.3471C28.7237 31.0853 28.2032 32.782 27.2325 34.2101C26.2617 35.6382 24.887 36.7298 23.2922 37.3389C21.6973 37.9479 19.9583 38.0454 18.3076 37.6184C16.657 37.1913 15.1734 36.26 14.0553 34.949C12.9372 33.638 12.2378 32.0098 12.0507 30.2821C11.8635 28.5543 12.1976 26.8095 13.0081 25.2808C13.8186 23.7521 15.0671 22.5125 16.5864 21.7276C18.1058 20.9428 19.8237 20.6501 21.5104 20.8888V25.6092C20.7385 25.3614 19.9097 25.3688 19.1423 25.6305C18.3749 25.8922 17.7081 26.3948 17.2371 27.0664C16.7661 27.738 16.5151 28.5443 16.5199 29.3703C16.5247 30.1962 16.785 30.9995 17.2636 31.6654C17.7423 32.3313 18.4149 32.8258 19.1853 33.0782C19.9557 33.3307 20.7845 33.3282 21.5534 33.0711C22.3223 32.814 22.992 32.3154 23.4668 31.6467C23.9416 30.9779 24.1973 30.173 24.1973 29.3471V11H28.7243C28.7211 11.3902 28.7532 11.78 28.82 12.1642C28.9773 13.022 29.3044 13.838 29.7812 14.5624C30.2581 15.2867 30.8747 15.9041 31.5933 16.3768C32.6157 17.0669 33.8143 17.4347 35.04 17.4345V22.0231Z" fill="white"/>
</svg>
