<svg width="48" height="48" viewBox="0 0 48 48" fill="none" xmlns="http://www.w3.org/2000/svg">
<path d="M28.96 12C33.3782 12 36.96 15.5817 36.96 20V28.96C36.96 33.3782 33.3782 36.96 28.96 36.96H20C15.5817 36.96 12 33.3782 12 28.96V20C12 15.5817 15.5817 12 20 12H28.96ZM24.4805 18.4414C21.1454 18.4414 18.4414 21.1454 18.4414 24.4805L18.4492 24.791C18.6058 27.8786 21.0814 30.354 24.1689 30.5107L24.4805 30.5186C27.7111 30.5184 30.3489 27.9815 30.5107 24.791L30.5186 24.4805C30.5186 21.2497 27.9816 18.611 24.791 18.4492L24.4805 18.4414ZM24.4805 21.4414C26.1585 21.4416 27.5186 22.8024 27.5186 24.4805C27.5184 26.1584 26.1584 27.5184 24.4805 27.5186C22.8024 27.5186 21.4416 26.1585 21.4414 24.4805C21.4414 22.8022 22.8022 21.4414 24.4805 21.4414ZM31.3242 15.2207C30.4349 15.2207 29.7139 15.9417 29.7139 16.8311C29.7139 17.7204 30.4349 18.4414 31.3242 18.4414C32.2134 18.4413 32.9346 17.7203 32.9346 16.8311C32.9346 15.9418 32.2134 15.2209 31.3242 15.2207Z" fill="white"/>
</svg>
