<svg width="266" height="30" viewBox="0 0 266 30" fill="none" xmlns="http://www.w3.org/2000/svg">
<path d="M265.673 2.75172C265.026 1.21854 263.534 0.223112 261.884 0.223112L35.8231 0C35.7947 0 35.7607 0 35.7323 0C33.509 0.0514874 31.4615 0.606409 29.6522 1.64188C29.3686 1.31579 29.0339 1.02975 28.6482 0.800916C27.0034 -0.177345 24.9105 0.108696 23.589 1.49314L16.2213 9.20481C15.0983 9.1762 13.981 9.6167 13.1586 10.4748L1.15138 22.7517C0.00568085 23.9531 -0.317612 25.7265 0.328973 27.2597C0.975557 28.7929 2.46724 29.7883 4.11773 29.7883C4.11773 29.7883 238.51 30 239.316 30C240.49 30 241.618 29.3535 242.413 28.5183L249.78 20.8066C249.809 20.8066 249.843 20.8124 249.871 20.8124C250.96 20.8124 252.043 20.3776 252.837 19.5423L264.844 7.26545C265.99 6.05835 266.319 4.2849 265.673 2.75172Z" fill="black"/>
<path d="M201.853 5.57698C200.827 4.90764 199.675 4.56439 198.422 4.56439H187.311C185.723 4.56439 184.277 4.93625 183.029 5.66851C181.248 6.70398 179.983 8.39734 179.274 10.7028C178.752 12.4134 176.778 19.101 176.761 19.1639L176.41 20.3195C175.894 22.0072 176.291 23.4088 177.555 24.3756C178.463 25.085 179.529 25.4454 180.72 25.4454H193.181C194.667 25.4454 196.04 25.0163 197.265 24.1639C198.836 23.0598 199.993 21.3378 200.696 19.0324L203.362 10.3367C204.168 7.71084 202.988 6.2978 201.853 5.57698ZM186.386 9.85616C186.681 9.65021 186.959 9.55295 187.249 9.55295H196.772C196.823 9.55295 196.976 9.55295 197.197 9.77034C197.322 9.90192 197.418 10.0735 197.248 10.4683C197.237 10.4912 197.231 10.514 197.225 10.5369C197.203 10.6113 195.127 17.8195 194.832 18.7806C194.645 19.3985 194.321 19.8333 193.828 20.125C193.459 20.3596 193.074 20.4683 192.654 20.4683H183.114C183 20.4683 182.847 20.434 182.666 20.1708C182.518 19.9591 182.467 19.736 182.513 19.4729C182.768 18.7806 185.383 11.6582 185.581 11.0118C185.734 10.4969 186.001 10.1193 186.386 9.85616Z" fill="white"/>
<path d="M239.157 4.78751C239.055 4.65021 238.896 4.56439 238.72 4.56439H231.67C231.517 4.56439 231.37 4.63304 231.267 4.74746L219.232 18.506L215.84 4.97629C215.778 4.73602 215.562 4.56439 215.318 4.56439H208.053C207.815 4.56439 207.605 4.71886 207.537 4.94769L201.474 24.7303C201.422 24.8962 201.451 25.0735 201.553 25.2166C201.655 25.3539 201.814 25.4397 201.99 25.4397H206.669C206.907 25.4397 207.117 25.2852 207.185 25.0564L211.042 12.4649L214.269 25.0335C214.331 25.2738 214.547 25.4397 214.791 25.4397H219.861C220.015 25.4397 220.168 25.371 220.27 25.2566L231.131 12.7566L227.456 24.736C227.405 24.9019 227.433 25.0793 227.535 25.2223C227.638 25.3596 227.796 25.4454 227.972 25.4454H232.657C232.895 25.4454 233.105 25.2909 233.173 25.0621L239.236 5.2795C239.287 5.10787 239.259 4.93053 239.157 4.78751Z" fill="white"/>
<path d="M53.6551 4.77676C53.553 4.63946 53.3942 4.55365 53.2184 4.55365H39.1239C39.1183 4.55365 39.1183 4.55365 39.1126 4.55365C37.6209 4.58797 36.2654 4.95411 35.0913 5.64061C33.3104 6.67608 32.0455 8.36372 31.3366 10.6692C31.3366 10.6749 31.3309 10.6864 31.3309 10.6921L28.7389 19.1131C28.7332 19.1246 28.7275 19.136 28.7275 19.1475L27.0033 24.7367C26.9523 24.9026 26.9806 25.08 27.0827 25.223C27.1848 25.3603 27.3436 25.4461 27.5195 25.4461H32.159C32.3915 25.4461 32.6014 25.2916 32.6751 25.0685L35.0856 17.4198H43.9109L41.7273 24.7482C41.6762 24.9141 41.7103 25.0914 41.8124 25.2287C41.9145 25.366 42.0733 25.4461 42.2434 25.4461H47.0871C47.3254 25.4461 47.5352 25.2916 47.6033 25.0628L53.7345 5.25731C53.7855 5.09713 53.7572 4.91406 53.6551 4.77676ZM46.5483 9.16464L45.5614 12.3511L36.6851 12.4083L36.9573 11.5445C37.1218 11.0811 37.2409 10.7436 37.2806 10.6177C37.4337 10.1143 37.7003 9.73672 38.086 9.46784C38.3866 9.26189 38.6702 9.15891 38.9538 9.15891H46.5483V9.16464Z" fill="white"/>
<path d="M153.411 4.78751C153.309 4.65021 153.15 4.56439 152.974 4.56439H131.024C130.786 4.56439 130.576 4.71885 130.508 4.95341L124.553 24.736C124.501 24.9019 124.535 25.0793 124.638 25.2166C124.74 25.3539 124.898 25.4397 125.074 25.4397H129.754C129.992 25.4397 130.202 25.2852 130.27 25.0564L134.994 9.64448H146.298L141.755 24.736C141.704 24.9019 141.738 25.0793 141.84 25.2166C141.942 25.3539 142.101 25.4397 142.277 25.4397H146.956C147.194 25.4397 147.404 25.2852 147.472 25.0564L153.501 5.27378C153.547 5.10787 153.513 4.93053 153.411 4.78751Z" fill="white"/>
<path d="M124.87 5.57698C123.844 4.90764 122.692 4.56439 121.433 4.56439H110.322C108.728 4.56439 107.288 4.93625 106.04 5.66851C104.259 6.70398 102.994 8.39734 102.285 10.7028C101.763 12.4134 99.7952 19.101 99.7782 19.1639L99.4209 20.3195C98.9047 22.0072 99.3074 23.4088 100.572 24.3756C101.48 25.085 102.54 25.4511 103.737 25.4511H116.198C117.684 25.4511 119.057 25.0221 120.276 24.1697C121.847 23.0655 122.999 21.3436 123.707 19.0381L126.368 10.3424C127.179 7.71085 126.005 6.2978 124.87 5.57698ZM109.398 9.85616C109.692 9.65021 109.976 9.54723 110.265 9.54723H119.788C119.924 9.54723 120.072 9.6216 120.214 9.7589C120.344 9.89048 120.435 10.0678 120.265 10.4568C120.253 10.4797 120.248 10.5026 120.242 10.5255C120.219 10.5999 118.143 17.8081 117.849 18.7692C117.661 19.387 117.338 19.8218 116.85 20.1079C116.482 20.3424 116.096 20.4568 115.671 20.4568H106.131C106.017 20.4568 105.864 20.4225 105.683 20.1651C105.535 19.9534 105.484 19.7303 105.529 19.4614C105.785 18.7635 108.399 11.6468 108.592 11.0003C108.751 10.4969 109.012 10.1193 109.398 9.85616Z" fill="white"/>
<path d="M75.9225 6.08613C75.0206 5.06782 73.5743 4.55867 71.6403 4.57583H61.4934L56.8539 4.56439C56.6157 4.56439 56.4058 4.71886 56.3377 4.94769L50.2462 24.7303C50.1952 24.8962 50.2236 25.0735 50.3256 25.2166C50.4277 25.3539 50.5865 25.4397 50.7624 25.4397L68.5037 25.4511C69.9898 25.4511 71.3623 25.0335 72.5818 24.2097C74.3741 22.9797 75.5651 21.2406 76.0302 19.1697C76.552 16.847 76.4272 15.7086 75.5368 14.6559C75.3893 14.49 75.2248 14.3413 75.0377 14.2097C75.6048 13.4202 75.8941 12.5793 76.1777 11.7612C76.932 9.49002 76.8299 7.10444 75.9225 6.08613ZM70.1542 10.9031C69.9671 11.498 69.6438 11.9214 69.1617 12.2017C68.793 12.4248 68.3903 12.5392 67.9763 12.5392H59.7919L60.8355 9.16394L69.1333 9.16965C69.2071 9.17538 69.2751 9.1811 69.3432 9.19254C69.6778 9.22114 69.899 9.24402 70.2053 9.43281C70.3641 9.53007 70.5059 9.7875 70.1542 10.9031ZM70.0124 17.5392C70.3017 17.7166 70.3584 18.2715 70.1486 18.9294C69.9614 19.5243 69.6381 19.9477 69.1503 20.228C68.7817 20.4568 68.3903 20.5655 67.9649 20.5655H57.3473L58.2888 17.4134H67.704C68.05 17.4248 68.362 17.442 68.6172 17.4591C68.6966 17.4649 68.8157 17.4648 68.9518 17.4706C69.2638 17.482 69.7118 17.4935 70.0124 17.5392Z" fill="white"/>
<path d="M177.646 7.04723C177.368 6.25776 176.693 5.61702 175.644 5.14792C174.867 4.79895 174.351 4.74746 172.819 4.58728L172.683 4.57011C172.666 4.57011 172.644 4.56439 172.627 4.56439H156.615C156.377 4.56439 156.167 4.71885 156.099 4.95341L150.144 24.736C150.093 24.9019 150.127 25.0793 150.229 25.2166C150.331 25.3539 150.49 25.4397 150.665 25.4397H155.345C155.583 25.4397 155.793 25.2852 155.861 25.0564L158.22 17.3333C159.848 17.3447 165.645 17.3562 169.297 17.3619C170.88 17.3619 172.32 16.99 173.579 16.2578C175.366 15.2223 176.625 13.5289 177.334 11.2292C177.901 9.36416 178.003 7.99689 177.646 7.04723ZM160.495 9.85616L170.358 9.87332C170.953 9.93053 171.073 10.0621 171.09 10.0793C171.141 10.1308 171.186 10.371 171.021 10.9088C170.868 11.4122 170.602 11.7898 170.216 12.0644C169.921 12.2703 169.638 12.3676 169.354 12.3676L159.729 12.3733L160.495 9.85616Z" fill="white"/>
<path d="M101.224 9.25547L102.444 5.27378C102.495 5.10787 102.466 4.93053 102.364 4.78751C102.262 4.65021 102.103 4.56439 101.928 4.56439H79.9777C79.7395 4.56439 79.5297 4.72458 79.4616 4.95341L78.2705 8.9351C78.2195 9.10101 78.2535 9.27835 78.3556 9.41565C78.4577 9.55295 78.6165 9.63304 78.7867 9.63304H86.6364L82.082 24.7246C82.0309 24.8905 82.065 25.0678 82.167 25.2051C82.2691 25.3424 82.4279 25.4282 82.6038 25.4282H87.283C87.5212 25.4282 87.7311 25.2738 87.7991 25.0449L92.5237 9.63304H100.708C100.946 9.64449 101.156 9.4843 101.224 9.25547Z" fill="white"/>
<path d="M193.181 25.7615H180.72C179.461 25.7615 178.333 25.3782 177.368 24.623C175.99 23.5704 175.553 22.0486 176.115 20.2237L176.467 19.0681C176.671 18.3644 178.48 12.2374 178.979 10.607C179.711 8.22141 181.021 6.47084 182.876 5.39532C184.175 4.63445 185.672 4.25116 187.317 4.25116H198.428C199.744 4.25116 200.957 4.60585 202.029 5.31523C203.254 6.09327 204.531 7.615 203.663 10.4411L200.997 19.1367C200.271 21.5109 199.074 23.2901 197.447 24.4342C196.17 25.3152 194.735 25.7615 193.181 25.7615ZM187.311 4.88045C185.774 4.88045 184.39 5.23514 183.182 5.9388C181.469 6.93423 180.255 8.56466 179.569 10.7901C179.07 12.4148 177.266 18.5418 177.062 19.2397L176.705 20.4125C176.228 21.9628 176.586 23.2443 177.743 24.1253C178.599 24.7946 179.597 25.1322 180.715 25.1322H193.176C194.599 25.1322 195.915 24.7203 197.078 23.9079C198.587 22.8496 199.704 21.1791 200.39 18.9422L203.056 10.2466C203.657 8.28434 203.198 6.80265 201.683 5.84155C201.683 5.84155 201.683 5.84155 201.678 5.84155C200.702 5.20082 199.607 4.88045 198.416 4.88045H187.311ZM192.654 20.7786H183.114C182.842 20.7786 182.609 20.6356 182.411 20.3438C182.218 20.0692 182.15 19.7603 182.206 19.4171L182.252 19.274C183.108 16.9457 185.11 11.4766 185.28 10.9159C185.456 10.3381 185.763 9.90334 186.211 9.59441C186.557 9.34842 186.897 9.234 187.249 9.234H196.772C196.993 9.234 197.203 9.33125 197.412 9.5372C197.685 9.81752 197.724 10.1551 197.532 10.5898L197.401 11.0361C196.063 15.6814 195.297 18.3187 195.127 18.8679C194.911 19.5658 194.537 20.0635 193.981 20.3896C193.578 20.6528 193.136 20.7786 192.654 20.7786ZM187.249 9.86329C187.027 9.86329 186.806 9.94338 186.562 10.115C186.233 10.3438 186.012 10.6585 185.876 11.099C185.7 11.6711 183.692 17.1573 182.836 19.4914L182.802 19.5772C182.785 19.7031 182.819 19.8404 182.915 19.9834C183.029 20.1493 183.086 20.1493 183.108 20.1493H192.648C193.011 20.1493 193.34 20.0521 193.658 19.8518C194.089 19.6001 194.361 19.2283 194.526 18.6848C194.69 18.1413 195.456 15.504 196.794 10.8587L196.913 10.4411C196.925 10.4068 196.936 10.3724 196.953 10.3324C197.061 10.0807 197.015 10.0292 196.964 9.98343C196.93 9.9491 196.834 9.86329 196.76 9.86329H187.249Z" fill="#636466"/>
<path d="M232.657 25.7546H227.972C227.7 25.7546 227.445 25.623 227.286 25.4057C227.127 25.1883 227.076 24.9022 227.156 24.6391L230.394 14.0727L220.502 25.4571C220.338 25.6459 220.105 25.7489 219.862 25.7489H214.791C214.405 25.7489 214.065 25.4857 213.969 25.1024L211.014 13.6093L207.474 25.1425C207.361 25.5029 207.038 25.7489 206.658 25.7489H201.978C201.706 25.7489 201.451 25.6173 201.292 25.3999C201.133 25.1825 201.082 24.8965 201.162 24.6333L207.225 4.85073C207.333 4.49032 207.662 4.24432 208.042 4.24432H215.307C215.698 4.24432 216.039 4.5132 216.135 4.8965L219.379 17.8484L231.024 4.54181C231.188 4.35874 231.421 4.25004 231.665 4.25004H238.715C238.987 4.25004 239.242 4.38162 239.401 4.59901C239.56 4.81641 239.611 5.10245 239.531 5.3656L233.468 25.1482C233.355 25.5086 233.031 25.7546 232.657 25.7546ZM231.131 12.4365C231.182 12.4365 231.234 12.448 231.285 12.4766C231.415 12.551 231.472 12.7054 231.432 12.8427L227.757 24.8221C227.734 24.8908 227.745 24.9651 227.791 25.0281C227.836 25.0853 227.904 25.1196 227.972 25.1196H232.657C232.759 25.1196 232.844 25.0567 232.873 24.9594L238.936 5.17682C238.959 5.10817 238.947 5.0338 238.902 4.97087C238.862 4.91366 238.794 4.87934 238.72 4.87934H231.67C231.602 4.87934 231.545 4.90794 231.5 4.95943L219.465 18.718C219.385 18.8038 219.266 18.8439 219.158 18.8153C219.045 18.7867 218.96 18.7008 218.931 18.5864L215.54 5.05668C215.511 4.9537 215.421 4.88506 215.318 4.88506H208.053C207.951 4.88506 207.866 4.94798 207.837 5.04524L201.774 24.8278C201.752 24.8965 201.769 24.9709 201.808 25.0338C201.854 25.091 201.922 25.1253 201.99 25.1253H206.669C206.771 25.1253 206.856 25.0624 206.885 24.9651L210.747 12.3736C210.787 12.242 210.923 12.1562 211.053 12.1505C211.195 12.1562 211.314 12.2478 211.348 12.3851L214.575 24.9537C214.604 25.0567 214.689 25.1253 214.797 25.1253H219.867C219.935 25.1253 219.998 25.0967 220.037 25.0452L230.899 12.5452C230.956 12.4766 231.041 12.4365 231.131 12.4365Z" fill="#636466"/>
<path d="M47.0873 25.761H42.2436C41.977 25.761 41.7218 25.6295 41.5573 25.4121C41.3985 25.1947 41.3474 24.9086 41.4268 24.6512L43.4914 17.729H35.3126L32.9702 25.1604C32.8567 25.5208 32.5278 25.761 32.1591 25.761H27.5196C27.2473 25.761 26.9921 25.6295 26.8333 25.4121C26.6745 25.1947 26.6234 24.9086 26.7085 24.6455L31.0361 10.5951C31.7734 8.19239 33.0836 6.4361 34.9383 5.36058C36.1634 4.64548 37.5643 4.26791 39.1127 4.23358H53.2242C53.4964 4.23358 53.7516 4.36516 53.9104 4.58255C54.0693 4.79994 54.1203 5.08598 54.0352 5.34914L47.904 25.1546C47.7906 25.5208 47.4616 25.761 47.0873 25.761ZM35.0858 17.1054H43.9111C44.0075 17.1054 44.1039 17.1512 44.1606 17.2313C44.2173 17.3114 44.24 17.4144 44.2117 17.5116L42.028 24.84C42.0053 24.9086 42.0224 24.983 42.0621 25.0459C42.1074 25.1031 42.1755 25.1375 42.2436 25.1375H47.0873C47.1894 25.1375 47.2744 25.0745 47.3028 24.9773L53.434 5.1718C53.4567 5.10315 53.4454 5.02305 53.4 4.96585C53.3546 4.90864 53.2865 4.87431 53.2185 4.87431H39.1241C37.6778 4.90864 36.3789 5.25761 35.2446 5.9155C33.5317 6.91093 32.3179 8.54136 31.6316 10.7668L27.2984 24.84C27.2757 24.9086 27.287 24.9887 27.3324 25.0459C27.3778 25.1031 27.4458 25.1375 27.5139 25.1375H32.1534C32.2555 25.1375 32.3406 25.0745 32.369 24.9773L34.7795 17.3285C34.8305 17.1912 34.9496 17.1054 35.0858 17.1054ZM36.6852 12.729C36.5831 12.729 36.4924 12.6832 36.4356 12.6031C36.3789 12.5231 36.3619 12.4144 36.3903 12.3228L36.6625 11.459C36.827 10.9899 36.9461 10.6523 36.9858 10.5322C37.1616 9.96013 37.4622 9.53107 37.9103 9.22214C38.262 8.97615 38.6023 8.85601 38.9539 8.85601H46.5541C46.6562 8.85601 46.747 8.90178 46.8037 8.98187C46.8604 9.06196 46.8774 9.16493 46.8491 9.26219L45.8622 12.4487C45.8225 12.5803 45.7034 12.6661 45.5672 12.6718L36.6852 12.729ZM38.9539 9.47958C38.7384 9.47958 38.5115 9.56539 38.2676 9.73129C37.9387 9.96013 37.7175 10.2805 37.5813 10.7153C37.5416 10.8469 37.4225 11.1901 37.2581 11.6535L37.1163 12.0883L45.3347 12.0368L46.1287 9.47958H38.9539Z" fill="#636466"/>
<path d="M146.95 25.7557H142.271C142.005 25.7557 141.744 25.6242 141.585 25.4068C141.426 25.1894 141.375 24.9033 141.455 24.6459L145.878 9.96054H135.227L130.57 25.1493C130.463 25.5097 130.134 25.7557 129.754 25.7557H125.074C124.808 25.7557 124.547 25.6242 124.388 25.4068C124.229 25.1894 124.178 24.9033 124.258 24.6459L130.213 4.86329C130.321 4.49715 130.65 4.25116 131.03 4.25116H152.98C153.246 4.25116 153.507 4.38274 153.666 4.60013C153.825 4.81752 153.876 5.10356 153.796 5.36672L147.767 25.1493C147.654 25.5097 147.325 25.7557 146.95 25.7557ZM134.994 9.32553H146.298C146.395 9.32553 146.491 9.3713 146.548 9.45139C146.604 9.53148 146.627 9.63446 146.599 9.73171L142.05 24.8232C142.027 24.8919 142.044 24.9663 142.084 25.0292C142.129 25.0864 142.198 25.1207 142.266 25.1207H146.945C147.047 25.1207 147.132 25.0578 147.16 24.9605L153.189 5.17793C153.212 5.10928 153.195 5.03491 153.155 4.97198C153.11 4.91478 153.042 4.88045 152.974 4.88045H131.024C130.922 4.88045 130.837 4.9491 130.809 5.04635L124.853 24.829C124.83 24.8976 124.847 24.972 124.887 25.0349C124.933 25.0921 125.001 25.1264 125.069 25.1264H129.748C129.85 25.1264 129.935 25.0635 129.963 24.9663L134.688 9.55437C134.733 9.41707 134.858 9.32553 134.994 9.32553Z" fill="#636466"/>
<path d="M116.198 25.7615H103.737C102.472 25.7615 101.344 25.3782 100.379 24.623C99.0011 23.5704 98.5644 22.0486 99.1259 20.2294L99.4832 19.0681C99.4945 19.0338 101.463 12.3232 101.99 10.607C102.722 8.22141 104.032 6.47084 105.887 5.39532C107.185 4.63445 108.677 4.25116 110.328 4.25116H121.439C122.755 4.25116 123.968 4.60585 125.04 5.31523C126.265 6.09327 127.542 7.615 126.674 10.4411L124.014 19.1367C123.282 21.5109 122.091 23.2901 120.463 24.4342C119.181 25.3152 117.752 25.7615 116.198 25.7615ZM110.328 4.88045C108.791 4.88045 107.401 5.23514 106.199 5.9388C104.486 6.93423 103.272 8.56466 102.586 10.7901C102.058 12.5177 100.09 19.1997 100.079 19.2454L99.7214 20.4125C99.245 21.9571 99.608 23.2443 100.759 24.1196C101.61 24.7889 102.614 25.1264 103.737 25.1264H116.198C117.622 25.1264 118.932 24.7145 120.1 23.9022C121.609 22.8438 122.726 21.1734 123.412 18.9365L126.073 10.2409C126.674 8.27862 126.214 6.79693 124.7 5.83583C124.7 5.83583 124.7 5.83583 124.694 5.83583C123.724 5.20082 122.624 4.87473 121.427 4.87473H110.328V4.88045ZM115.665 20.7786H106.125C105.853 20.7786 105.62 20.6413 105.422 20.3496C105.223 20.0692 105.161 19.7603 105.217 19.4171C105.836 17.7237 108.116 11.4994 108.291 10.9159C108.473 10.3324 108.774 9.90334 109.222 9.59441C109.568 9.34842 109.908 9.234 110.265 9.234H119.788C120.004 9.234 120.225 9.33697 120.429 9.5372C120.707 9.82324 120.741 10.1551 120.548 10.5898C120.52 10.6814 118.438 17.9125 118.143 18.8679C117.928 19.5658 117.554 20.0578 117.003 20.3896C116.589 20.6528 116.153 20.7786 115.665 20.7786ZM110.265 9.86329C110.044 9.86329 109.817 9.94338 109.579 10.115C109.256 10.3381 109.029 10.6642 108.893 11.1047C108.683 11.7912 105.853 19.5029 105.824 19.5772C105.807 19.7031 105.841 19.8404 105.943 19.9891C106.057 20.1493 106.114 20.1493 106.136 20.1493H115.676C116.039 20.1493 116.368 20.0521 116.691 19.8518C117.117 19.6001 117.389 19.2283 117.559 18.6848C117.854 17.7294 119.93 10.5097 119.953 10.4468C119.964 10.4068 119.975 10.3724 119.992 10.3381C120.1 10.0864 120.055 10.0349 120.004 9.98914C119.913 9.90333 119.839 9.86901 119.8 9.86901H110.265V9.86329Z" fill="#636466"/>
<path d="M68.4983 25.7603L50.7569 25.7489C50.4846 25.7489 50.2294 25.6173 50.0706 25.3999C49.9118 25.1825 49.8607 24.8965 49.9458 24.6333L56.0373 4.85073C56.1508 4.49032 56.4741 4.24432 56.8541 4.24432L71.6404 4.25577C73.6709 4.22716 75.1853 4.77636 76.1552 5.86904C77.1534 6.99032 77.2782 9.44455 76.4615 11.8473C76.2062 12.6024 75.9397 13.3748 75.4519 14.1299C75.5653 14.2272 75.6674 14.3301 75.7582 14.4388C76.728 15.583 76.8698 16.7901 76.3197 19.2329C75.8376 21.3839 74.6011 23.1917 72.7464 24.4674C71.4816 25.3256 70.0523 25.7603 68.4983 25.7603ZM56.8541 4.87934C56.752 4.87934 56.6669 4.94226 56.6385 5.03952L50.5414 24.8221C50.5187 24.8908 50.53 24.9651 50.5754 25.0281C50.6208 25.0853 50.6888 25.1196 50.7569 25.1196L68.4983 25.131C69.9219 25.131 71.2377 24.7306 72.4005 23.9411C74.1247 22.7626 75.2704 21.0807 75.7185 19.0899C76.2232 16.853 76.1155 15.8233 75.2931 14.845C75.1683 14.702 75.0208 14.5647 74.8563 14.4503C74.7883 14.4045 74.7429 14.3301 74.7259 14.2443C74.7146 14.1585 74.7316 14.0727 74.7826 14.004C75.3271 13.2489 75.605 12.4308 75.8773 11.6356C76.5976 9.5132 76.5182 7.21343 75.6958 6.28094C74.8563 5.33128 73.4838 4.86217 71.6518 4.87934H56.8541ZM67.9708 20.8862H57.3532C57.2568 20.8862 57.1603 20.8404 57.1036 20.7603C57.0469 20.6802 57.0242 20.5773 57.0526 20.48L57.9941 17.3278C58.0338 17.1963 58.1529 17.1047 58.2947 17.1047H67.7099C68.0672 17.1162 68.3848 17.1333 68.6457 17.1505C68.7195 17.1562 68.8329 17.1562 68.9633 17.1619C69.2696 17.1677 69.7404 17.1791 70.0637 17.2306C70.1034 17.2363 70.1374 17.2535 70.1714 17.2706C70.5968 17.5281 70.7046 18.2146 70.4437 19.0269C70.2282 19.702 69.8595 20.1883 69.3037 20.5086C68.8953 20.7603 68.4586 20.8862 67.9708 20.8862ZM57.7729 20.2569H67.9708C68.3395 20.2569 68.6741 20.1597 68.9917 19.9651C69.4114 19.7192 69.6837 19.3645 69.8538 18.8381C70.024 18.2947 69.9673 17.9514 69.8822 17.8427C69.6043 17.8084 69.2129 17.797 68.952 17.7912C68.8102 17.7855 68.6911 17.7855 68.606 17.7798C68.3508 17.7626 68.0388 17.7455 67.6985 17.734H58.5272L57.7729 20.2569ZM67.9708 12.8542H59.7864C59.6843 12.8542 59.5935 12.8084 59.5368 12.7283C59.4801 12.6482 59.4631 12.5452 59.4915 12.448L60.5351 9.0727C60.5748 8.94112 60.6995 8.84959 60.8357 8.84959L69.3717 8.87819C69.729 8.91252 70.0013 8.9354 70.3756 9.16423C70.767 9.40451 70.7897 9.93654 70.455 11.0006C70.2395 11.6757 69.8708 12.1562 69.3207 12.4766C68.901 12.7283 68.4472 12.8542 67.9708 12.8542ZM60.2118 12.2249H67.9708C68.3281 12.2249 68.6741 12.1276 68.9974 11.9331C69.4171 11.6928 69.6893 11.3381 69.8538 10.8118C70.1431 9.88506 70.0467 9.70771 70.041 9.70199C69.7971 9.55325 69.6383 9.5418 69.315 9.5132L69.0995 9.49032L61.0625 9.4846L60.2118 12.2249Z" fill="#636466"/>
<path d="M155.339 25.7557H150.66C150.393 25.7557 150.132 25.6242 149.974 25.4068C149.815 25.1894 149.764 24.9033 149.843 24.6459L155.798 4.86329C155.906 4.49715 156.235 4.25116 156.615 4.25116H172.627C172.638 4.25116 172.706 4.25688 172.717 4.25688L172.854 4.26832C174.379 4.4285 174.952 4.49144 175.775 4.85757C176.903 5.361 177.629 6.06466 177.941 6.93423C178.321 7.95253 178.219 9.38274 177.629 11.3049C176.903 13.6848 175.587 15.4354 173.733 16.5166C172.422 17.2775 170.931 17.6665 169.292 17.6665C165.792 17.6608 160.336 17.6493 158.442 17.6379L156.15 25.1379C156.042 25.5097 155.713 25.7557 155.339 25.7557ZM156.615 4.88617C156.513 4.88617 156.428 4.9491 156.4 5.04635L150.444 24.829C150.422 24.8976 150.439 24.972 150.478 25.0349C150.524 25.0921 150.592 25.1264 150.66 25.1264H155.339C155.441 25.1264 155.526 25.0635 155.555 24.9663L157.914 17.2431C157.954 17.1116 158.073 17.02 158.215 17.02C159.842 17.0315 165.639 17.0429 169.292 17.0486C170.817 17.0486 172.207 16.6882 173.421 15.9846C175.134 14.9891 176.353 13.353 177.034 11.1333C177.584 9.34841 177.686 8.04979 177.357 7.16878V7.16306C177.107 6.45368 176.489 5.87587 175.525 5.44681C174.793 5.12072 174.328 5.06924 172.797 4.90906L172.655 4.89189L156.615 4.88617ZM159.729 12.6894C159.633 12.6894 159.536 12.6436 159.479 12.5635C159.423 12.4834 159.406 12.3805 159.434 12.2832L160.2 9.76603C160.239 9.63445 160.359 9.54292 160.5 9.54292L170.364 9.56008C170.868 9.60585 171.175 9.70883 171.328 9.86901C171.543 10.1036 171.447 10.6127 171.328 11.0017C171.152 11.5738 170.846 12.0086 170.403 12.3232C170.052 12.5692 169.711 12.6837 169.36 12.6837L159.729 12.6894ZM160.727 10.1779L160.149 12.0658L169.348 12.0601C169.57 12.0601 169.796 11.98 170.035 11.8084C170.364 11.5795 170.585 11.2534 170.721 10.8187C170.812 10.5269 170.823 10.361 170.823 10.2866C170.761 10.2637 170.613 10.218 170.33 10.1894L160.727 10.1779Z" fill="#636466"/>
<path d="M87.2831 25.7549H82.6039C82.3373 25.7549 82.0764 25.6233 81.9176 25.4059C81.7588 25.1885 81.7077 24.9025 81.7871 24.6451L86.2168 9.9597H78.7868C78.5202 9.9597 78.265 9.82812 78.1005 9.61073C77.9417 9.39334 77.8906 9.1073 77.97 8.84986L79.1611 4.86817C79.2689 4.50204 79.5978 4.25604 79.9778 4.25604H101.928C102.2 4.25604 102.455 4.38762 102.614 4.60501C102.773 4.8224 102.824 5.10844 102.744 5.3716L101.525 9.35329C101.417 9.71371 101.088 9.9597 100.708 9.9597H92.7564L88.0998 25.1485C87.9864 25.5089 87.6574 25.7549 87.2831 25.7549ZM79.9835 4.88533C79.8814 4.88533 79.7963 4.95398 79.7623 5.05124L78.5712 9.03293C78.5485 9.10158 78.5656 9.17595 78.6053 9.23888C78.6506 9.29609 78.7187 9.33041 78.7868 9.33041H86.6365C86.7329 9.33041 86.8294 9.37618 86.8861 9.45627C86.9428 9.53636 86.9655 9.63934 86.9371 9.73659L82.3827 24.8281C82.36 24.8968 82.377 24.9711 82.4167 25.0341C82.4621 25.0913 82.5301 25.1256 82.5982 25.1256H87.2774C87.3795 25.1256 87.4646 25.0627 87.493 24.9654L92.2176 9.55353C92.2573 9.42195 92.3764 9.33041 92.5182 9.33041H100.703C100.805 9.33041 100.89 9.26748 100.918 9.17023L102.138 5.18854C102.16 5.11989 102.149 5.04551 102.104 4.98259C102.064 4.92538 101.99 4.89105 101.922 4.89105H79.9835V4.88533Z" fill="#636466"/>
<path d="M261.226 4.38208H256.087L253.66 12.2997L261.226 4.38208Z" fill="#E51937"/>
<path d="M245.305 4.3822L238.788 25.6351L246.355 17.7174L250.444 4.3822H245.305Z" fill="#E51937"/>
<path d="M252.979 4.38208L249.219 16.659L252.338 13.3924L255.1 4.38208H252.979Z" fill="#E51937"/>
<path d="M4.77576 25.6348H9.90873L12.3363 17.7115L4.77576 25.6348Z" fill="#E51937"/>
<path d="M20.6908 25.6349L27.2077 4.38208L19.6415 12.294L15.5578 25.6349H20.6908Z" fill="#E51937"/>
<path d="M13.0169 25.6348L16.783 13.3522L13.6635 16.6188L10.9013 25.6348H13.0169Z" fill="#E51937"/>
</svg>
